<?xml version="1.0" encoding="utf-8"?>
<svg version="1.1" id="Layer_1" xmlns="http://www.w3.org/2000/svg" xmlns:xlink="http://www.w3.org/1999/xlink" x="0px" y="0px"
viewBox="0 0 2000 2000" style="enable-background:new 0 0 2000 2000;" xml:space="preserve">
<style type="text/css">
.st0{fill-rule:evenodd;clip-rule:evenodd;fill:#111111;}
.st1{enable-background:new    ;}
.st2{clip-path:url(#SVGID_00000156561433047948138740000000822517506338749081_);fill:#64BB46;}
.st3{clip-path:url(#SVGID_00000134247357730622637900000010841739557706281397_);fill:#00A850;}

.st4{clip-path:url(#SVGID_00000178895386084613799000000006105807410771044512_);fill-rule:evenodd;clip-rule:evenodd;fill:#0F75BD;}

.st5{clip-path:url(#SVGID_00000109718722638534617530000001510259316203276461_);fill-rule:evenodd;clip-rule:evenodd;fill:#2F67B4;}
</style>
<g id="CENTRAL_COMPUTER_IMPROVEMENT">
<g>
<path class="st0" d="M204.71,1517.63c-5.25,1.67-11.86,2.51-19.85,2.51c-6.92,0-12.96-1.19-18.14-3.58
c-5.19-2.39-9.51-5.76-12.96-10.12s-6.05-9.58-7.78-15.66s-2.59-12.82-2.59-20.23c0-7.64,0.98-14.52,2.95-20.67
s4.8-11.36,8.5-15.66c3.7-4.3,8.17-7.58,13.41-9.85c5.25-2.27,11.14-3.4,17.7-3.4c3.1,0,6.17,0.27,9.21,0.8
c3.04,0.54,5.84,1.22,8.41,2.06c2.56,0.84,4.86,1.68,6.89,2.51c2.03,0.83,3.58,1.61,4.65,2.33l5.01-14.32
c-0.71-0.47-2.03-1.19-3.93-2.15c-1.91-0.95-4.38-1.91-7.42-2.86c-3.04-0.96-6.62-1.79-10.73-2.51
c-4.11-0.72-8.74-1.07-13.85-1.07c-8.11,0-15.73,1.43-22.89,4.3c-7.16,2.86-13.41,7.04-18.77,12.53
c-5.37,5.5-9.63,12.26-12.78,20.32c-3.16,8.06-4.74,17.27-4.74,27.66s1.4,19.6,4.21,27.66c2.8,8.06,6.77,14.83,11.88,20.32
c5.12,5.5,11.26,9.67,18.41,12.53c7.16,2.87,15.08,4.3,23.78,4.3c5.01,0,9.66-0.3,13.94-0.9c4.29-0.6,8.05-1.31,11.26-2.15
c3.22-0.83,5.9-1.7,8.05-2.6c2.15-0.89,3.64-1.64,4.47-2.24l-4.47-14.32C213.89,1514.47,209.95,1515.96,204.71,1517.63z
M258.17,1474.84h51.86v-14.49h-51.86v-36.88h58.28v-14.86h-75.64v124.06h80.1v-14.86h-62.75V1474.84z M418.82,1517.81
c3.4,5.49,6.41,10.45,9.03,14.86h14.48v-124.06h-16.98v91.84c-3.82-6.33-8.5-13.54-14.03-21.66c-5.54-8.12-11.44-16.38-17.7-24.79
c-6.26-8.42-12.57-16.58-18.95-24.53c-6.38-7.94-12.36-14.88-17.97-20.86h-13.76v124.06h16.98v-96.86
c3.34,3.82,6.98,8.24,10.91,13.25s7.99,10.36,12.15,16.02c4.17,5.67,8.38,11.54,12.6,17.63c4.23,6.09,8.32,12.08,12.24,17.99
C411.76,1506.62,415.42,1512.32,418.82,1517.81z M460.57,1423.64h38.98v109.03h17.34v-109.03h38.98v-15.03h-95.3v15.03H460.57z
M650.98,1503.03c-3.1-4.71-6.11-9.01-9.03-12.88c-2.92-3.88-5.34-7.01-7.24-9.4c8.47-2.86,14.86-7.22,19.22-13.06
c4.35-5.85,6.53-12.88,6.53-21.12c0-13-4.56-22.79-13.67-29.36c-9.12-6.57-22.38-9.85-39.78-9.85c-5.01,0-10.53,0.21-16.54,0.63
c-6.02,0.42-11.47,1.23-16.36,2.42v122.27h17.34v-48.52H607c1.67,0,3.31,0,4.92,0s3.19-0.06,4.74-0.18
c2.27,2.75,4.8,5.97,7.6,9.67c2.8,3.7,5.63,7.67,8.5,11.9c2.86,4.24,5.69,8.68,8.5,13.33c2.8,4.66,5.39,9.25,7.78,13.78h18.95
c-2.15-4.78-4.74-9.73-7.78-14.86C657.15,1512.68,654.08,1507.75,650.98,1503.03z M631.94,1465.53c-3.28,1.67-7.31,2.81-12.07,3.4
c-4.77,0.6-10.14,0.89-16.09,0.89h-12.33v-46.72c3.94-0.36,9.6-0.54,16.98-0.54c4.65,0,9.03,0.36,13.14,1.07
c4.11,0.72,7.69,1.97,10.73,3.76s5.46,4.24,7.24,7.34c1.79,3.11,2.68,6.98,2.68,11.63c0,5.02-0.89,9.05-2.68,12.08
C637.75,1461.5,635.22,1463.86,631.94,1465.53z M706.94,1500.97h56.14c1.91,5.37,3.76,10.66,5.55,15.84
c1.79,5.19,3.69,10.48,5.72,15.84h18.95c-4.77-13.12-9.24-25.27-13.41-36.43c-4.17-11.15-8.26-21.75-12.24-31.78
c-4-10.03-7.96-19.6-11.88-28.74c-3.94-9.13-8.05-18.17-12.33-27.12h-15.91c-4.29,8.96-8.41,17.99-12.33,27.12
c-3.93,9.14-7.9,18.71-11.89,28.74c-4,10.03-8.08,20.62-12.24,31.78c-4.18,11.16-8.65,23.3-13.41,36.43h18.05L706.94,1500.97z
M723.13,1456.49c3.76-9.73,7.72-19.06,11.88-28.02c4.05,8.96,7.96,18.29,11.71,28.02c3.76,9.73,7.54,19.78,11.35,30.17h-46.13
C715.64,1476.28,719.37,1466.22,723.13,1456.49z M884.66,1517.63h-57.21V1408.6h-17.34v124.06h74.56L884.66,1517.63
L884.66,1517.63z M955.28,1518.53c5.13,5.5,11.26,9.67,18.42,12.53c7.16,2.87,15.07,4.3,23.78,4.3c5.01,0,9.66-0.3,13.95-0.9
c4.29-0.6,8.05-1.31,11.26-2.15c3.22-0.83,5.9-1.7,8.05-2.6c2.14-0.89,3.64-1.64,4.47-2.24l-4.47-14.32
c-2.62,1.32-6.56,2.81-11.8,4.48c-5.25,1.67-11.86,2.51-19.84,2.51c-6.92,0-12.96-1.19-18.15-3.58s-9.51-5.76-12.96-10.12
c-3.46-4.36-6.05-9.58-7.78-15.66c-1.73-6.09-2.59-12.82-2.59-20.23c0-7.64,0.98-14.52,2.95-20.67c1.97-6.15,4.8-11.36,8.5-15.66
c3.7-4.3,8.17-7.58,13.41-9.85c5.25-2.27,11.14-3.4,17.7-3.4c3.1,0,6.17,0.27,9.21,0.8c3.04,0.54,5.84,1.22,8.41,2.06
c2.56,0.84,4.86,1.68,6.88,2.51c2.03,0.83,3.58,1.61,4.65,2.33l5.01-14.32c-0.71-0.47-2.03-1.19-3.94-2.15
c-1.91-0.95-4.38-1.91-7.42-2.86c-3.04-0.96-6.62-1.79-10.73-2.51c-4.12-0.72-8.74-1.07-13.85-1.07c-8.11,0-15.73,1.43-22.89,4.3
c-7.16,2.86-13.41,7.04-18.77,12.53c-5.37,5.5-9.63,12.26-12.78,20.32c-3.16,8.06-4.74,17.27-4.74,27.66s1.4,19.6,4.2,27.66
C946.19,1506.26,950.16,1513.03,955.28,1518.53z M1160.1,1442.44c-3.16-8.12-7.43-14.88-12.78-20.32
c-5.37-5.43-11.59-9.52-18.68-12.26c-7.1-2.75-14.63-4.12-22.62-4.12c-8.11,0-15.76,1.38-22.97,4.12
c-7.22,2.75-13.53,6.84-18.95,12.26c-5.43,5.43-9.73,12.2-12.87,20.32c-3.16,8.12-4.74,17.48-4.74,28.11
c0,10.63,1.58,19.99,4.74,28.11c3.16,8.12,7.45,14.88,12.87,20.32c5.42,5.43,11.73,9.53,18.95,12.26
c7.21,2.75,14.86,4.12,22.97,4.12c7.99,0,15.52-1.38,22.62-4.12c7.09-2.74,13.31-6.83,18.68-12.26
c5.37-5.43,9.63-12.2,12.78-20.32c3.16-8.12,4.74-17.48,4.74-28.11C1164.83,1459.92,1163.26,1450.56,1160.1,1442.44z
M1143.55,1491.04c-1.91,6.15-4.62,11.36-8.14,15.66c-3.52,4.3-7.78,7.61-12.78,9.94c-5.01,2.33-10.68,3.49-16.98,3.49
c-6.32,0-12.01-1.16-17.07-3.49c-5.07-2.33-9.36-5.64-12.87-9.94c-3.52-4.3-6.24-9.52-8.14-15.66c-1.91-6.15-2.86-12.97-2.86-20.5
c0-7.52,0.95-14.34,2.86-20.49c1.91-6.15,4.62-11.36,8.14-15.66c3.51-4.3,7.81-7.61,12.87-9.94s10.76-3.49,17.07-3.49
s11.97,1.16,16.98,3.49c5.01,2.33,9.27,5.64,12.78,9.94c3.52,4.3,6.23,9.52,8.14,15.66s2.86,12.97,2.86,20.49
C1146.41,1478.06,1145.46,1484.9,1143.55,1491.04z M1294.82,1408.61c-3.22,5.26-6.68,11.46-10.38,18.62
c-3.7,7.16-7.4,14.65-11.08,22.47c-3.7,7.82-7.28,15.63-10.73,23.45c-3.46,7.82-6.62,14.95-9.48,21.39
c-2.86-6.45-6.02-13.57-9.48-21.39s-7.04-15.63-10.73-23.45c-3.7-7.82-7.4-15.3-11.08-22.47c-3.7-7.16-7.16-13.36-10.38-18.62
h-15.2c-1.07,8.96-2.05,18.44-2.95,28.47c-0.9,10.03-1.73,20.32-2.51,30.89s-1.46,21.3-2.06,32.23
c-0.6,10.92-1.14,21.75-1.61,32.5h16.99c0.59-16.71,1.31-33.27,2.14-49.68c0.83-16.41,1.91-31.66,3.22-45.74
c1.19,2.03,2.77,4.95,4.74,8.77c1.97,3.82,4.09,8.15,6.35,12.97c2.27,4.84,4.68,9.97,7.25,15.39c2.56,5.43,4.97,10.72,7.24,15.84
c2.26,5.13,4.38,9.91,6.35,14.32c1.97,4.42,3.55,8.06,4.74,10.93h13.94c1.19-2.87,2.78-6.51,4.74-10.93
c1.97-4.42,4.09-9.2,6.35-14.32c2.26-5.13,4.68-10.42,7.24-15.84c2.56-5.43,4.98-10.57,7.24-15.39c2.26-4.83,4.38-9.16,6.35-12.97
c1.97-3.82,3.55-6.74,4.74-8.77c1.31,14.08,2.38,29.33,3.22,45.74c0.83,16.41,1.55,32.96,2.15,49.68h16.98
c-2.03-42.73-5.07-84.08-9.12-124.06h-15.17V1408.61z M1419.34,1417.28c-9.36-6.63-22.73-9.94-40.14-9.94
c-5.01,0-10.53,0.21-16.54,0.63c-6.02,0.42-11.47,1.23-16.36,2.42v122.27h17.34v-46.01h13.77c8.7,0,16.5-0.72,23.42-2.15
c6.91-1.43,12.78-3.73,17.61-6.89c4.83-3.17,8.53-7.28,11.08-12.35c2.56-5.08,3.85-11.18,3.85-18.35
C1433.38,1433.78,1428.7,1423.91,1419.34,1417.28z M1412.46,1459.09c-1.79,3.22-4.32,5.76-7.6,7.61
c-3.28,1.85-7.31,3.16-12.06,3.94c-4.77,0.78-10.14,1.17-16.09,1.17h-13.05v-48.7c3.94-0.36,9.6-0.54,16.99-0.54
c4.65,0,9.06,0.36,13.23,1.07c4.17,0.72,7.84,2,10.99,3.85c3.16,1.85,5.66,4.33,7.51,7.43c1.85,3.11,2.78,7.05,2.78,11.81
C1415.15,1451.75,1414.25,1455.86,1412.46,1459.09z M1530.83,1484.51c0,6.21-0.71,11.54-2.15,16.02
c-1.43,4.48-3.46,8.15-6.08,11.01c-2.62,2.86-5.75,4.99-9.39,6.36c-3.64,1.38-7.67,2.06-12.07,2.06c-8.82,0-15.97-2.8-21.45-8.42
c-5.49-5.61-8.23-14.62-8.23-27.04v-75.91h-17.34v77.87c0,6.93,0.92,13.37,2.78,19.33c1.84,5.97,4.68,11.12,8.49,15.48
c3.81,4.36,8.7,7.79,14.66,10.3c5.96,2.51,12.99,3.76,21.09,3.76c8.11,0,15.11-1.25,21.01-3.76s10.79-5.94,14.66-10.3
c3.87-4.36,6.74-9.52,8.58-15.48c1.85-5.97,2.77-12.41,2.77-19.33v-77.87h-17.34L1530.83,1484.51L1530.83,1484.51z
M1565.51,1423.64h38.97v109.03h17.35v-109.03h38.97v-15.03h-95.3V1423.64z M1696.38,1474.84h51.86v-14.49h-51.86v-36.88h58.29
v-14.86h-75.64v124.06h80.1v-14.86h-62.76L1696.38,1474.84L1696.38,1474.84z M1867.22,1517.81c-3.04-5.13-6.11-10.06-9.21-14.77
c-3.1-4.71-6.12-9.01-9.04-12.88c-2.92-3.88-5.34-7.01-7.24-9.4c8.47-2.86,14.87-7.22,19.22-13.06
c4.35-5.85,6.53-12.88,6.53-21.12c0-13-4.56-22.79-13.68-29.36c-9.12-6.57-22.38-9.85-39.78-9.85c-5.01,0-10.53,0.21-16.53,0.63
c-6.02,0.42-11.47,1.23-16.36,2.42v122.27h17.34v-48.52h15.55c1.67,0,3.31,0,4.92,0s3.19-0.06,4.74-0.18
c2.26,2.75,4.8,5.97,7.6,9.67c2.8,3.7,5.63,7.67,8.5,11.9c2.86,4.24,5.69,8.68,8.5,13.33c2.8,4.66,5.39,9.25,7.78,13.78H1875
C1872.85,1527.89,1870.26,1522.93,1867.22,1517.81z M1838.97,1465.53c-3.28,1.67-7.31,2.81-12.06,3.4
c-4.77,0.6-10.14,0.89-16.09,0.89h-12.34v-46.72c3.94-0.36,9.6-0.54,16.98-0.54c4.65,0,9.04,0.36,13.14,1.07
c4.12,0.72,7.69,1.97,10.73,3.76c3.04,1.79,5.46,4.24,7.24,7.34c1.79,3.11,2.69,6.98,2.69,11.63c0,5.02-0.9,9.05-2.69,12.08
C1844.78,1461.5,1842.24,1463.86,1838.97,1465.53z M342.74,1747.49h27.89v-124.06h-27.89V1747.49z M530.92,1682.95
c-0.78-11.04-1.67-21.66-2.68-31.87c-1.01-10.21-2.12-19.42-3.31-27.66h-25.39c-2.15,3.94-4.63,8.81-7.44,14.59
c-2.81,5.79-5.74,12.05-8.79,18.79c-3.05,6.75-6.07,13.63-9.06,20.68c-2.99,7.04-5.8,13.66-8.43,19.87
c-2.63-6.21-5.44-12.82-8.43-19.87c-2.99-7.05-6.01-13.93-9.06-20.68c-3.05-6.74-5.98-13-8.79-18.79
c-2.81-5.79-5.29-10.66-7.44-14.59H405.5c-1.19,8.24-2.3,17.45-3.31,27.66s-1.91,20.83-2.68,31.87
c-0.78,11.04-1.49,22.11-2.15,33.2c-0.66,11.1-1.22,21.54-1.7,31.33h27.18c0.36-12.05,0.83-25.18,1.43-39.38
c0.59-14.2,1.49-28.53,2.68-42.97c2.15,5.01,4.54,10.57,7.18,16.65c2.63,6.09,5.23,12.17,7.8,18.26s5.06,11.9,7.45,17.45
s4.42,10.29,6.1,14.23h19.49c1.67-3.94,3.71-8.68,6.1-14.23c2.39-5.55,4.88-11.36,7.45-17.45c2.57-6.09,5.17-12.17,7.81-18.26
c2.63-6.09,5.02-11.63,7.18-16.65c1.19,14.44,2.09,28.77,2.68,42.97c0.59,14.2,1.07,27.33,1.43,39.38h27.18
c-0.48-9.79-1.05-20.23-1.7-31.33C532.41,1705.06,531.69,1694,530.92,1682.95z M639.35,1631.75c-9.9-6.5-24.08-9.76-42.55-9.76
c-5.13,0-11.08,0.24-17.88,0.72c-6.8,0.48-13.23,1.31-19.31,2.5v122.27h27.89v-41.53h8.77c18.59,0,32.89-3.31,42.91-9.94
c10.02-6.62,15.01-17.39,15.01-32.32C654.2,1648.91,649.25,1638.26,639.35,1631.75z M618.08,1678.21
c-4.89,2.63-12.15,3.94-21.81,3.94h-8.77v-35.8c1.43-0.12,3.13-0.24,5.1-0.36c1.97-0.12,3.96-0.18,5.99-0.18
c4.05,0,7.75,0.27,11.08,0.81s6.17,1.49,8.5,2.87c2.33,1.37,4.11,3.19,5.37,5.46c1.25,2.27,1.88,5.14,1.88,8.6
C625.41,1670.69,622.96,1675.58,618.08,1678.21z M761.39,1720.01c-2.68-4.36-5.4-8.53-8.14-12.53c-2.74-4-5.37-7.55-7.87-10.66
c7.51-3.1,13.25-7.37,17.25-12.79c3.99-5.43,5.99-12.5,5.99-21.21c0-13.96-4.95-24.26-14.84-30.89
c-9.9-6.62-24.14-9.94-42.73-9.94c-5.13,0-10.93,0.24-17.43,0.72c-6.5,0.48-12.78,1.31-18.86,2.5v122.27h27.89v-45.29h13.76
c2.39,2.86,4.79,6.06,7.18,9.58c2.39,3.52,4.82,7.25,7.27,11.18c2.45,3.94,4.85,8,7.18,12.17c2.33,4.18,4.64,8.3,6.91,12.35h31.2
c-2.15-4.54-4.47-9.16-6.98-13.87C766.66,1728.9,764.07,1724.37,761.39,1720.01z M733.04,1676.06
c-4.53,2.63-12.04,3.94-22.53,3.94h-7.87v-33.65c1.43-0.12,2.95-0.24,4.56-0.36c1.61-0.12,3.43-0.18,5.46-0.18
c8.94,0,15.7,1.29,20.29,3.85c4.59,2.57,6.89,6.9,6.89,12.97C739.84,1668.96,737.57,1673.43,733.04,1676.06z M890.74,1637.03
c-5.61-5.49-12.15-9.61-19.67-12.35c-7.51-2.75-15.49-4.12-23.96-4.12c-8.23,0-16.06,1.38-23.51,4.12
c-7.45,2.75-14,6.87-19.67,12.35c-5.67,5.5-10.17,12.26-13.5,20.32c-3.34,8.06-5.01,17.4-5.01,28.02
c0,10.63,1.61,19.96,4.83,28.02c3.22,8.06,7.63,14.8,13.23,20.23c5.6,5.43,12.15,9.52,19.66,12.26
c7.51,2.75,15.49,4.12,23.96,4.12c8.7,0,16.83-1.37,24.41-4.12c7.57-2.75,14.09-6.83,19.58-12.26
c5.48-5.43,9.81-12.17,12.96-20.23c3.16-8.06,4.74-17.39,4.74-28.02c0-10.62-1.61-19.96-4.83-28.02
C900.76,1649.3,896.35,1642.53,890.74,1637.03z M877.78,1701.84c-1.49,4.9-3.64,9.11-6.44,12.62s-6.26,6.24-10.38,8.15
c-4.11,1.91-8.74,2.86-13.85,2.86c-5.25,0-9.9-0.95-13.94-2.86c-4.05-1.91-7.49-4.63-10.29-8.15s-4.95-7.73-6.44-12.62
c-1.49-4.89-2.24-10.39-2.24-16.47c0-5.97,0.75-11.42,2.24-16.38c1.49-4.95,3.64-9.19,6.44-12.7s6.23-6.27,10.29-8.24
c4.05-1.97,8.7-2.95,13.94-2.95c5.13,0,9.75,0.96,13.85,2.86c4.11,1.91,7.57,4.63,10.38,8.15c2.8,3.52,4.95,7.76,6.44,12.7
c1.49,4.95,2.24,10.48,2.24,16.56S879.27,1696.94,877.78,1701.84z M1003.31,1646.68c-2.84,8.29-5.73,16.54-8.68,24.77
s-5.8,16.1-8.56,23.64c-2.76,7.54-5.31,14.02-7.64,19.47c-2.47-5.48-5.06-11.98-7.75-19.52c-2.7-7.54-5.52-15.41-8.47-23.64
c-2.95-8.23-5.84-16.48-8.68-24.77c-2.84-8.28-5.42-16.01-7.74-23.2h-30.76c2.63,7.88,5.76,16.82,9.39,26.86
c3.62,10.04,7.59,20.53,11.9,31.51c4.32,10.96,8.88,22.06,13.67,33.26c4.8,11.2,9.67,22.02,14.59,32.45h26.6
c4.91-10.38,9.76-21.17,14.52-32.4c4.77-11.22,9.3-22.32,13.58-33.3c4.29-10.97,8.24-21.47,11.85-31.49
c3.61-10.01,6.81-18.97,9.59-26.88h-29.7C1008.73,1630.65,1006.15,1638.4,1003.31,1646.68z M1084.55,1694.14h49.53v-22.91h-49.53
v-24.35h55.78v-23.45h-83.67v124.06h87.79v-23.45h-59.89v-29.91H1084.55z M1296.69,1682.95c-0.78-11.04-1.67-21.66-2.68-31.87
c-1.01-10.21-2.12-19.42-3.31-27.66h-25.39c-2.15,3.94-4.63,8.81-7.45,14.59c-2.82,5.79-5.74,12.05-8.79,18.79
c-3.05,6.75-6.07,13.63-9.06,20.68c-2.99,7.04-5.8,13.66-8.43,19.87c-2.64-6.21-5.44-12.82-8.43-19.87
c-2.99-7.05-6.01-13.93-9.06-20.68c-3.05-6.74-5.98-13-8.79-18.79c-2.81-5.79-5.29-10.66-7.44-14.59h-26.64
c-1.19,8.24-2.3,17.45-3.31,27.66c-1.01,10.21-1.91,20.83-2.68,31.87c-0.78,11.04-1.49,22.11-2.15,33.2
c-0.65,11.1-1.22,21.54-1.7,31.33h27.18c0.36-12.05,0.83-25.18,1.43-39.38c0.6-14.2,1.49-28.53,2.69-42.97
c2.15,5.01,4.54,10.57,7.17,16.65s5.23,12.17,7.8,18.26c2.57,6.09,5.06,11.9,7.45,17.45c2.39,5.55,4.42,10.29,6.1,14.23h19.49
c1.67-3.94,3.71-8.68,6.1-14.23c2.39-5.55,4.88-11.36,7.45-17.45c2.57-6.09,5.17-12.17,7.81-18.26
c2.63-6.09,5.02-11.63,7.17-16.65c1.19,14.44,2.09,28.77,2.68,42.97s1.07,27.33,1.43,39.38h27.18c-0.48-9.79-1.04-20.23-1.7-31.33
C1298.18,1705.06,1297.46,1694,1296.69,1682.95z M1353.28,1694.14h49.53v-22.91h-49.53v-24.35h55.78v-23.45h-83.67v124.06h87.79
v-23.45h-59.9V1694.14z M1512.59,1696.64c-4.29-6.45-8.88-13.15-13.77-20.14c-4.89-6.98-9.81-13.72-14.74-20.23
c-4.95-6.51-9.81-12.62-14.57-18.35c-4.77-5.73-9.12-10.57-13.05-14.49h-22.71v124.06h27.54v-81.27
c10.49,12.29,20.38,25.36,29.68,39.2c9.3,13.84,17.94,27.87,25.93,42.07h23.42v-124.06h-27.72v73.22H1512.59z M1558.17,1647.24
h37.37v100.25h27.89v-100.25h37.36v-23.81h-102.62V1647.24z"/>
</g>
</g>
<g id="Ellipse_1__x2B__Ellipse_1_copy_2_2_" class="st1">
<g>
<defs>
<path id="SVGID_1_" d="M1073.06,704.97V573c-0.01,0-0.74,0-30.2,0c-71.39-188.78-253.62-323-467.18-323
c-275.8,0-499.37,223.86-499.37,500s223.57,500,499.37,500c101.78,0,196.44-30.49,275.39-82.84L666.94,982.77
C638.68,993.89,607.9,1000,575.7,1000c-137.9,0-249.68-111.93-249.68-250S437.81,500,575.7,500c68.9,0,131.29,27.95,176.46,73.14
h0.44c161.18,176.97,172.7,383.91,320.48,531.87V795.03c1.32-14.84,2-29.85,2-45.03C1075.06,734.81,1074.38,719.8,1073.06,704.97
z"/>
</defs>
<clipPath id="SVGID_00000094596840406903125680000014695954576677365149_">
<use xlink:href="#SVGID_1_"  style="overflow:visible;"/>
</clipPath>

<circle style="clip-path:url(#SVGID_00000094596840406903125680000014695954576677365149_);fill:#64BB46;" cx="574.63" cy="749.35" r="500.18"/>
</g>
<g>
<defs>
<path id="SVGID_00000123419074989833088610000012758198893093950340_" d="M1073.06,704.97V573c-0.01,0-0.74,0-30.2,0
c-71.39-188.78-253.62-323-467.18-323c-275.8,0-499.37,223.86-499.37,500s223.57,500,499.37,500
c101.78,0,196.44-30.49,275.39-82.84L666.94,982.77C638.68,993.89,607.9,1000,575.7,1000c-137.9,0-249.68-111.93-249.68-250
S437.81,500,575.7,500c68.9,0,131.29,27.95,176.46,73.14h0.44c161.18,176.97,172.7,383.91,320.48,531.87V795.03
c1.32-14.84,2-29.85,2-45.03C1075.06,734.81,1074.38,719.8,1073.06,704.97z"/>
</defs>
<clipPath id="SVGID_00000084521058585137830430000013554531575904338347_">
<use xlink:href="#SVGID_00000123419074989833088610000012758198893093950340_"  style="overflow:visible;"/>
</clipPath>
<path style="clip-path:url(#SVGID_00000084521058585137830430000013554531575904338347_);fill:#00A850;" d="M949.77,749.35
c0-207.18-167.95-375.14-375.14-375.14S199.5,542.17,199.5,749.35s167.95,375.14,375.14,375.14
c149.72,0,278.95-87.72,339.12-214.57v192.56h161.06V749.35H949.77z"/>
</g>
</g>
<g id="Ellipse_2__x2B__Ellipse_2_copy_2_" class="st1">
<g>
<defs>
<path id="SVGID_00000028283989093263838690000013114231267253204133_" d="M924.95,750c0,276.14,223.58,500,499.37,500
c30.69,0,60.73-2.78,89.88-8.08V983.29c-27.89,10.78-58.2,16.71-89.88,16.71c-137.9,0-249.68-111.93-249.68-250
s111.79-250,249.68-250c31.69,0,61.99,5.92,89.88,16.71V258.08c-29.16-5.3-59.2-8.08-89.88-8.08
C1148.53,249.99,924.95,473.85,924.95,750z M1693.97,329.09v841.8c138.18-88.93,229.71-244.22,229.71-420.9
S1832.15,418.02,1693.97,329.09z"/>
</defs>
<clipPath id="SVGID_00000164474883838006066120000000058634130087585666_">
<use xlink:href="#SVGID_00000028283989093263838690000013114231267253204133_"  style="overflow:visible;"/>
</clipPath>

<circle style="clip-path:url(#SVGID_00000164474883838006066120000000058634130087585666_);fill-rule:evenodd;clip-rule:evenodd;fill:#0F75BD;" cx="1424.64" cy="749.35" r="500.18"/>
</g>
<g>
<defs>
<path id="SVGID_00000048469583649483405520000014267273771477991587_" d="M924.95,750c0,276.14,223.58,500,499.37,500
c30.69,0,60.73-2.78,89.88-8.08V983.29c-27.89,10.78-58.2,16.71-89.88,16.71c-137.9,0-249.68-111.93-249.68-250
s111.79-250,249.68-250c31.69,0,61.99,5.92,89.88,16.71V258.08c-29.16-5.3-59.2-8.08-89.88-8.08
C1148.53,249.99,924.95,473.85,924.95,750z M1693.97,329.09v841.8c138.18-88.93,229.71-244.22,229.71-420.9
S1832.15,418.02,1693.97,329.09z"/>
</defs>
<clipPath id="SVGID_00000124875386766047089790000010326797062597354136_">
<use xlink:href="#SVGID_00000048469583649483405520000014267273771477991587_"  style="overflow:visible;"/>
</clipPath>

<circle style="clip-path:url(#SVGID_00000124875386766047089790000010326797062597354136_);fill-rule:evenodd;clip-rule:evenodd;fill:#2F67B4;" cx="1424.64" cy="749.35" r="375.14"/>
</g>
</g>
</svg>
