<svg width="2000" height="1750" viewBox="0 0 2000 1750" fill="none" xmlns="http://www.w3.org/2000/svg">
<g clip-path="url(#clip0_300_61)">
<path fill-rule="evenodd" clip-rule="evenodd" d="M204.71 1392.63C199.46 1394.3 192.85 1395.14 184.86 1395.14C177.94 1395.14 171.9 1393.95 166.72 1391.56C161.53 1389.17 157.21 1385.8 153.76 1381.44C150.31 1377.08 147.71 1371.86 145.98 1365.78C144.25 1359.7 143.39 1352.96 143.39 1345.55C143.39 1337.91 144.37 1331.03 146.34 1324.88C148.31 1318.73 151.14 1313.52 154.84 1309.22C158.54 1304.92 163.01 1301.64 168.25 1299.37C173.5 1297.1 179.39 1295.97 185.95 1295.97C189.05 1295.97 192.12 1296.24 195.16 1296.77C198.2 1297.31 201 1297.99 203.57 1298.83C206.13 1299.67 208.43 1300.51 210.46 1301.34C212.49 1302.17 214.04 1302.95 215.11 1303.67L220.12 1289.35C219.41 1288.88 218.09 1288.16 216.19 1287.2C214.28 1286.25 211.81 1285.29 208.77 1284.34C205.73 1283.38 202.15 1282.55 198.04 1281.83C193.93 1281.11 189.3 1280.76 184.19 1280.76C176.08 1280.76 168.46 1282.19 161.3 1285.06C154.14 1287.92 147.89 1292.1 142.53 1297.59C137.16 1303.09 132.9 1309.85 129.75 1317.91C126.59 1325.97 125.01 1335.18 125.01 1345.57C125.01 1355.96 126.41 1365.17 129.22 1373.23C132.02 1381.29 135.99 1388.06 141.1 1393.55C146.22 1399.05 152.36 1403.22 159.51 1406.08C166.67 1408.95 174.59 1410.38 183.29 1410.38C188.3 1410.38 192.95 1410.08 197.23 1409.48C201.52 1408.88 205.28 1408.17 208.49 1407.33C211.71 1406.5 214.39 1405.63 216.54 1404.73C218.69 1403.84 220.18 1403.09 221.01 1402.49L216.54 1388.17C213.89 1389.47 209.95 1390.96 204.71 1392.63ZM258.17 1349.84H310.03V1335.35H258.17V1298.47H316.45V1283.61H240.81V1407.67H320.91V1392.81H258.16V1349.84H258.17ZM418.82 1392.81C422.22 1398.3 425.23 1403.26 427.85 1407.67H442.33V1283.61H425.35V1375.45C421.53 1369.12 416.85 1361.91 411.32 1353.79C405.78 1345.67 399.88 1337.41 393.62 1329C387.36 1320.58 381.05 1312.42 374.67 1304.47C368.29 1296.53 362.31 1289.59 356.7 1283.61H342.94V1407.67H359.92V1310.81C363.26 1314.63 366.9 1319.05 370.83 1324.06C374.76 1329.07 378.82 1334.42 382.98 1340.08C387.15 1345.75 391.36 1351.62 395.58 1357.71C399.81 1363.8 403.9 1369.79 407.82 1375.7C411.76 1381.62 415.42 1387.32 418.82 1392.81ZM460.57 1298.64H499.55V1407.67H516.89V1298.64H555.87V1283.61H460.57V1298.64ZM650.98 1378.03C647.88 1373.32 644.87 1369.02 641.95 1365.15C639.03 1361.27 636.61 1358.14 634.71 1355.75C643.18 1352.89 649.57 1348.53 653.93 1342.69C658.28 1336.84 660.46 1329.81 660.46 1321.57C660.46 1308.57 655.9 1298.78 646.79 1292.21C637.67 1285.64 624.41 1282.36 607.01 1282.36C602 1282.36 596.48 1282.57 590.47 1282.99C584.45 1283.41 579 1284.22 574.11 1285.41V1407.68H591.45V1359.16H607C608.67 1359.16 610.31 1359.16 611.92 1359.16C613.53 1359.16 615.11 1359.1 616.66 1358.98C618.93 1361.73 621.46 1364.95 624.26 1368.65C627.06 1372.35 629.89 1376.32 632.76 1380.55C635.62 1384.79 638.45 1389.23 641.26 1393.88C644.06 1398.54 646.65 1403.13 649.04 1407.66H667.99C665.84 1402.88 663.25 1397.93 660.21 1392.8C657.15 1387.68 654.08 1382.75 650.98 1378.03ZM631.94 1340.53C628.66 1342.2 624.63 1343.34 619.87 1343.93C615.1 1344.53 609.73 1344.82 603.78 1344.82H591.45V1298.1C595.39 1297.74 601.05 1297.56 608.43 1297.56C613.08 1297.56 617.46 1297.92 621.57 1298.63C625.68 1299.35 629.26 1300.6 632.3 1302.39C635.34 1304.18 637.76 1306.63 639.54 1309.73C641.33 1312.84 642.22 1316.71 642.22 1321.36C642.22 1326.38 641.33 1330.41 639.54 1333.44C637.75 1336.5 635.22 1338.86 631.94 1340.53ZM706.94 1375.97H763.08C764.99 1381.34 766.84 1386.63 768.63 1391.81C770.42 1397 772.32 1402.29 774.35 1407.65H793.3C788.53 1394.53 784.06 1382.38 779.89 1371.22C775.72 1360.07 771.63 1349.47 767.65 1339.44C763.65 1329.41 759.69 1319.84 755.77 1310.7C751.83 1301.57 747.72 1292.53 743.44 1283.58H727.53C723.24 1292.54 719.12 1301.57 715.2 1310.7C711.27 1319.84 707.3 1329.41 703.31 1339.44C699.31 1349.47 695.23 1360.06 691.07 1371.22C686.89 1382.38 682.42 1394.52 677.66 1407.65H695.71L706.94 1375.97ZM723.13 1331.49C726.89 1321.76 730.85 1312.43 735.01 1303.47C739.06 1312.43 742.97 1321.76 746.72 1331.49C750.48 1341.22 754.26 1351.27 758.07 1361.66H711.94C715.64 1351.28 719.37 1341.22 723.13 1331.49ZM884.66 1392.63H827.45V1283.6H810.11V1407.66H884.67L884.66 1392.63ZM955.28 1393.53C960.41 1399.03 966.54 1403.2 973.7 1406.06C980.86 1408.93 988.77 1410.36 997.48 1410.36C1002.49 1410.36 1007.14 1410.06 1011.43 1409.46C1015.72 1408.86 1019.48 1408.15 1022.69 1407.31C1025.91 1406.48 1028.59 1405.61 1030.74 1404.71C1032.88 1403.82 1034.38 1403.07 1035.21 1402.47L1030.74 1388.15C1028.12 1389.47 1024.18 1390.96 1018.94 1392.63C1013.69 1394.3 1007.08 1395.14 999.1 1395.14C992.18 1395.14 986.14 1393.95 980.95 1391.56C975.76 1389.17 971.44 1385.8 967.99 1381.44C964.53 1377.08 961.94 1371.86 960.21 1365.78C958.48 1359.69 957.62 1352.96 957.62 1345.55C957.62 1337.91 958.6 1331.03 960.57 1324.88C962.54 1318.73 965.37 1313.52 969.07 1309.22C972.77 1304.92 977.24 1301.64 982.48 1299.37C987.73 1297.1 993.62 1295.97 1000.18 1295.97C1003.28 1295.97 1006.35 1296.24 1009.39 1296.77C1012.43 1297.31 1015.23 1297.99 1017.8 1298.83C1020.36 1299.67 1022.66 1300.51 1024.68 1301.34C1026.71 1302.17 1028.26 1302.95 1029.33 1303.67L1034.34 1289.35C1033.63 1288.88 1032.31 1288.16 1030.4 1287.2C1028.49 1286.25 1026.02 1285.29 1022.98 1284.34C1019.94 1283.38 1016.36 1282.55 1012.25 1281.83C1008.13 1281.11 1003.51 1280.76 998.4 1280.76C990.29 1280.76 982.67 1282.19 975.51 1285.06C968.35 1287.92 962.1 1292.1 956.74 1297.59C951.37 1303.09 947.11 1309.85 943.96 1317.91C940.8 1325.97 939.22 1335.18 939.22 1345.57C939.22 1355.96 940.62 1365.17 943.42 1373.23C946.19 1381.26 950.16 1388.03 955.28 1393.53ZM1160.1 1317.44C1156.94 1309.32 1152.67 1302.56 1147.32 1297.12C1141.95 1291.69 1135.73 1287.6 1128.64 1284.86C1121.54 1282.11 1114.01 1280.74 1106.02 1280.74C1097.91 1280.74 1090.26 1282.12 1083.05 1284.86C1075.83 1287.61 1069.52 1291.7 1064.1 1297.12C1058.67 1302.55 1054.37 1309.32 1051.23 1317.44C1048.07 1325.56 1046.49 1334.92 1046.49 1345.55C1046.49 1356.18 1048.07 1365.54 1051.23 1373.66C1054.39 1381.78 1058.68 1388.54 1064.1 1393.98C1069.52 1399.41 1075.83 1403.51 1083.05 1406.24C1090.26 1408.99 1097.91 1410.36 1106.02 1410.36C1114.01 1410.36 1121.54 1408.98 1128.64 1406.24C1135.73 1403.5 1141.95 1399.41 1147.32 1393.98C1152.69 1388.55 1156.95 1381.78 1160.1 1373.66C1163.26 1365.54 1164.84 1356.18 1164.84 1345.55C1164.83 1334.92 1163.26 1325.56 1160.1 1317.44ZM1143.55 1366.04C1141.64 1372.19 1138.93 1377.4 1135.41 1381.7C1131.89 1386 1127.63 1389.31 1122.63 1391.64C1117.62 1393.97 1111.95 1395.13 1105.65 1395.13C1099.33 1395.13 1093.64 1393.97 1088.58 1391.64C1083.51 1389.31 1079.22 1386 1075.71 1381.7C1072.19 1377.4 1069.47 1372.18 1067.57 1366.04C1065.66 1359.89 1064.71 1353.07 1064.71 1345.54C1064.71 1338.02 1065.66 1331.2 1067.57 1325.05C1069.48 1318.9 1072.19 1313.69 1075.71 1309.39C1079.22 1305.09 1083.52 1301.78 1088.58 1299.45C1093.64 1297.12 1099.34 1295.96 1105.65 1295.96C1111.96 1295.96 1117.62 1297.12 1122.63 1299.45C1127.64 1301.78 1131.9 1305.09 1135.41 1309.39C1138.93 1313.69 1141.64 1318.91 1143.55 1325.05C1145.46 1331.19 1146.41 1338.02 1146.41 1345.54C1146.41 1353.06 1145.46 1359.9 1143.55 1366.04ZM1294.82 1283.61C1291.6 1288.87 1288.14 1295.07 1284.44 1302.23C1280.74 1309.39 1277.04 1316.88 1273.36 1324.7C1269.66 1332.52 1266.08 1340.33 1262.63 1348.15C1259.17 1355.97 1256.01 1363.1 1253.15 1369.54C1250.29 1363.09 1247.13 1355.97 1243.67 1348.15C1240.21 1340.33 1236.63 1332.52 1232.94 1324.7C1229.24 1316.88 1225.54 1309.4 1221.86 1302.23C1218.16 1295.07 1214.7 1288.87 1211.48 1283.61H1196.28C1195.21 1292.57 1194.23 1302.05 1193.33 1312.08C1192.43 1322.11 1191.6 1332.4 1190.82 1342.97C1190.04 1353.54 1189.36 1364.27 1188.76 1375.2C1188.16 1386.12 1187.62 1396.95 1187.15 1407.7H1204.14C1204.73 1390.99 1205.45 1374.43 1206.28 1358.02C1207.11 1341.61 1208.19 1326.36 1209.5 1312.28C1210.69 1314.31 1212.27 1317.23 1214.24 1321.05C1216.21 1324.87 1218.33 1329.2 1220.59 1334.02C1222.86 1338.86 1225.27 1343.99 1227.84 1349.41C1230.4 1354.84 1232.81 1360.13 1235.08 1365.25C1237.34 1370.38 1239.46 1375.16 1241.43 1379.57C1243.4 1383.99 1244.98 1387.63 1246.17 1390.5H1260.11C1261.3 1387.63 1262.89 1383.99 1264.85 1379.57C1266.82 1375.15 1268.94 1370.37 1271.2 1365.25C1273.46 1360.12 1275.88 1354.83 1278.44 1349.41C1281 1343.98 1283.42 1338.84 1285.68 1334.02C1287.94 1329.19 1290.06 1324.86 1292.03 1321.05C1294 1317.23 1295.58 1314.31 1296.77 1312.28C1298.08 1326.36 1299.15 1341.61 1299.99 1358.02C1300.82 1374.43 1301.54 1390.98 1302.14 1407.7H1319.12C1317.09 1364.97 1314.05 1323.62 1310 1283.64H1294.83V1283.61H1294.82ZM1419.34 1292.28C1409.98 1285.65 1396.61 1282.34 1379.2 1282.34C1374.19 1282.34 1368.67 1282.55 1362.66 1282.97C1356.64 1283.39 1351.19 1284.2 1346.3 1285.39V1407.66H1363.64V1361.65H1377.41C1386.11 1361.65 1393.91 1360.93 1400.83 1359.5C1407.74 1358.07 1413.61 1355.77 1418.44 1352.61C1423.27 1349.44 1426.97 1345.33 1429.52 1340.26C1432.08 1335.18 1433.37 1329.08 1433.37 1321.91C1433.38 1308.78 1428.7 1298.91 1419.34 1292.28ZM1412.46 1334.09C1410.67 1337.31 1408.14 1339.85 1404.86 1341.7C1401.58 1343.55 1397.55 1344.86 1392.8 1345.64C1388.03 1346.42 1382.66 1346.81 1376.71 1346.81H1363.66V1298.11C1367.6 1297.75 1373.26 1297.57 1380.65 1297.57C1385.3 1297.57 1389.71 1297.93 1393.88 1298.64C1398.05 1299.36 1401.72 1300.64 1404.87 1302.49C1408.03 1304.34 1410.53 1306.82 1412.38 1309.92C1414.23 1313.03 1415.16 1316.97 1415.16 1321.73C1415.15 1326.75 1414.25 1330.86 1412.46 1334.09ZM1530.83 1359.51C1530.83 1365.72 1530.12 1371.05 1528.68 1375.53C1527.25 1380.01 1525.22 1383.68 1522.6 1386.54C1519.98 1389.4 1516.85 1391.53 1513.21 1392.9C1509.57 1394.28 1505.54 1394.96 1501.14 1394.96C1492.32 1394.96 1485.17 1392.16 1479.69 1386.54C1474.2 1380.93 1471.46 1371.92 1471.46 1359.5V1283.59H1454.12V1361.46C1454.12 1368.39 1455.04 1374.83 1456.9 1380.79C1458.74 1386.76 1461.58 1391.91 1465.39 1396.27C1469.2 1400.63 1474.09 1404.06 1480.05 1406.57C1486.01 1409.08 1493.04 1410.33 1501.14 1410.33C1509.25 1410.33 1516.25 1409.08 1522.15 1406.57C1528.05 1404.06 1532.94 1400.63 1536.81 1396.27C1540.68 1391.91 1543.55 1386.75 1545.39 1380.79C1547.24 1374.82 1548.16 1368.38 1548.16 1361.46V1283.59H1530.82L1530.83 1359.51ZM1565.51 1298.64H1604.48V1407.67H1621.83V1298.64H1660.8V1283.61H1565.5V1298.64H1565.51ZM1696.38 1349.84H1748.24V1335.35H1696.38V1298.47H1754.67V1283.61H1679.03V1407.67H1759.13V1392.81H1696.37L1696.38 1349.84ZM1867.22 1392.81C1864.18 1387.68 1861.11 1382.75 1858.01 1378.04C1854.91 1373.33 1851.89 1369.03 1848.97 1365.16C1846.05 1361.28 1843.63 1358.15 1841.73 1355.76C1850.2 1352.9 1856.6 1348.54 1860.95 1342.7C1865.3 1336.85 1867.48 1329.82 1867.48 1321.58C1867.48 1308.58 1862.92 1298.79 1853.8 1292.22C1844.68 1285.65 1831.42 1282.37 1814.02 1282.37C1809.01 1282.37 1803.49 1282.58 1797.49 1283C1791.47 1283.42 1786.02 1284.23 1781.13 1285.42V1407.69H1798.47V1359.17H1814.02C1815.69 1359.17 1817.33 1359.17 1818.94 1359.17C1820.55 1359.17 1822.13 1359.11 1823.68 1358.99C1825.94 1361.74 1828.48 1364.96 1831.28 1368.66C1834.08 1372.36 1836.91 1376.33 1839.78 1380.56C1842.64 1384.8 1845.47 1389.24 1848.28 1393.89C1851.08 1398.55 1853.67 1403.14 1856.06 1407.67H1875C1872.85 1402.89 1870.26 1397.93 1867.22 1392.81ZM1838.97 1340.53C1835.69 1342.2 1831.66 1343.34 1826.91 1343.93C1822.14 1344.53 1816.77 1344.82 1810.82 1344.82H1798.48V1298.1C1802.42 1297.74 1808.08 1297.56 1815.46 1297.56C1820.11 1297.56 1824.5 1297.92 1828.6 1298.63C1832.72 1299.35 1836.29 1300.6 1839.33 1302.39C1842.37 1304.18 1844.79 1306.63 1846.57 1309.73C1848.36 1312.84 1849.26 1316.71 1849.26 1321.36C1849.26 1326.38 1848.36 1330.41 1846.57 1333.44C1844.78 1336.5 1842.24 1338.86 1838.97 1340.53ZM342.74 1622.49H370.63V1498.43H342.74V1622.49ZM530.92 1557.95C530.14 1546.91 529.25 1536.29 528.24 1526.08C527.23 1515.87 526.12 1506.66 524.93 1498.42H499.54C497.39 1502.36 494.91 1507.23 492.1 1513.01C489.29 1518.8 486.36 1525.06 483.31 1531.8C480.26 1538.55 477.24 1545.43 474.25 1552.48C471.26 1559.52 468.45 1566.14 465.82 1572.35C463.19 1566.14 460.38 1559.53 457.39 1552.48C454.4 1545.43 451.38 1538.55 448.33 1531.8C445.28 1525.06 442.35 1518.8 439.54 1513.01C436.73 1507.22 434.25 1502.35 432.1 1498.42H405.5C404.31 1506.66 403.2 1515.87 402.19 1526.08C401.18 1536.29 400.28 1546.91 399.51 1557.95C398.73 1568.99 398.02 1580.06 397.36 1591.15C396.7 1602.25 396.14 1612.69 395.66 1622.48H422.84C423.2 1610.43 423.67 1597.3 424.27 1583.1C424.86 1568.9 425.76 1554.57 426.95 1540.13C429.1 1545.14 431.49 1550.7 434.13 1556.78C436.76 1562.87 439.36 1568.95 441.93 1575.04C444.5 1581.13 446.99 1586.94 449.38 1592.49C451.77 1598.04 453.8 1602.78 455.48 1606.72H474.97C476.64 1602.78 478.68 1598.04 481.07 1592.49C483.46 1586.94 485.95 1581.13 488.52 1575.04C491.09 1568.95 493.69 1562.87 496.33 1556.78C498.96 1550.69 501.35 1545.15 503.51 1540.13C504.7 1554.57 505.6 1568.9 506.19 1583.1C506.78 1597.3 507.26 1610.43 507.62 1622.48H534.8C534.32 1612.69 533.75 1602.25 533.1 1591.15C532.41 1580.06 531.69 1569 530.92 1557.95ZM639.35 1506.75C629.45 1500.25 615.27 1496.99 596.8 1496.99C591.67 1496.99 585.72 1497.23 578.92 1497.71C572.12 1498.19 565.69 1499.02 559.61 1500.21V1622.48H587.5V1580.95H596.27C614.86 1580.95 629.16 1577.64 639.18 1571.01C649.2 1564.39 654.19 1553.62 654.19 1538.69C654.2 1523.91 649.25 1513.26 639.35 1506.75ZM618.08 1553.21C613.19 1555.84 605.93 1557.15 596.27 1557.15H587.5V1521.35C588.93 1521.23 590.63 1521.11 592.6 1520.99C594.57 1520.87 596.56 1520.81 598.59 1520.81C602.64 1520.81 606.34 1521.08 609.67 1521.62C613 1522.16 615.84 1523.11 618.17 1524.49C620.5 1525.86 622.28 1527.68 623.54 1529.95C624.79 1532.22 625.42 1535.09 625.42 1538.55C625.41 1545.69 622.96 1550.58 618.08 1553.21ZM761.39 1595.01C758.71 1590.65 755.99 1586.48 753.25 1582.48C750.51 1578.48 747.88 1574.93 745.38 1571.82C752.89 1568.72 758.63 1564.45 762.63 1559.03C766.62 1553.6 768.62 1546.53 768.62 1537.82C768.62 1523.86 763.67 1513.56 753.78 1506.93C743.88 1500.31 729.64 1496.99 711.05 1496.99C705.92 1496.99 700.12 1497.23 693.62 1497.71C687.12 1498.19 680.84 1499.02 674.76 1500.21V1622.48H702.65V1577.19H716.41C718.8 1580.05 721.2 1583.25 723.59 1586.77C725.98 1590.29 728.41 1594.02 730.86 1597.95C733.31 1601.89 735.71 1605.95 738.04 1610.12C740.37 1614.3 742.68 1618.42 744.95 1622.47H776.15C774 1617.93 771.68 1613.31 769.17 1608.6C766.66 1603.9 764.07 1599.37 761.39 1595.01ZM733.04 1551.06C728.51 1553.69 721 1555 710.51 1555H702.64V1521.35C704.07 1521.23 705.59 1521.11 707.2 1520.99C708.81 1520.87 710.63 1520.81 712.66 1520.81C721.6 1520.81 728.36 1522.1 732.95 1524.66C737.54 1527.23 739.84 1531.56 739.84 1537.63C739.84 1543.96 737.57 1548.43 733.04 1551.06ZM890.74 1512.03C885.13 1506.54 878.59 1502.42 871.07 1499.68C863.56 1496.93 855.58 1495.56 847.11 1495.56C838.88 1495.56 831.05 1496.94 823.6 1499.68C816.15 1502.43 809.6 1506.55 803.93 1512.03C798.26 1517.53 793.76 1524.29 790.43 1532.35C787.09 1540.41 785.42 1549.75 785.42 1560.37C785.42 1571 787.03 1580.33 790.25 1588.39C793.47 1596.45 797.88 1603.19 803.48 1608.62C809.08 1614.05 815.63 1618.14 823.14 1620.88C830.65 1623.63 838.63 1625 847.1 1625C855.8 1625 863.93 1623.63 871.51 1620.88C879.08 1618.13 885.6 1614.05 891.09 1608.62C896.57 1603.19 900.9 1596.45 904.05 1588.39C907.21 1580.33 908.79 1571 908.79 1560.37C908.79 1549.75 907.18 1540.41 903.96 1532.35C900.76 1524.3 896.35 1517.53 890.74 1512.03ZM877.78 1576.84C876.29 1581.74 874.14 1585.95 871.34 1589.46C868.54 1592.97 865.08 1595.7 860.96 1597.61C856.85 1599.52 852.22 1600.47 847.11 1600.47C841.86 1600.47 837.21 1599.52 833.17 1597.61C829.12 1595.7 825.68 1592.98 822.88 1589.46C820.08 1585.94 817.93 1581.73 816.44 1576.84C814.95 1571.95 814.2 1566.45 814.2 1560.37C814.2 1554.4 814.95 1548.95 816.44 1543.99C817.93 1539.04 820.08 1534.8 822.88 1531.29C825.68 1527.78 829.11 1525.02 833.17 1523.05C837.22 1521.08 841.87 1520.1 847.11 1520.1C852.24 1520.1 856.86 1521.06 860.96 1522.96C865.07 1524.87 868.53 1527.59 871.34 1531.11C874.14 1534.63 876.29 1538.87 877.78 1543.81C879.27 1548.76 880.02 1554.29 880.02 1560.37C880.02 1566.45 879.27 1571.94 877.78 1576.84ZM1003.31 1521.68C1000.47 1529.97 997.58 1538.22 994.63 1546.45C991.68 1554.68 988.83 1562.55 986.07 1570.09C983.31 1577.63 980.76 1584.11 978.43 1589.56C975.96 1584.08 973.37 1577.58 970.68 1570.04C967.98 1562.5 965.16 1554.63 962.21 1546.4C959.26 1538.17 956.37 1529.92 953.53 1521.63C950.69 1513.35 948.11 1505.62 945.79 1498.43H915.03C917.66 1506.31 920.79 1515.25 924.42 1525.29C928.04 1535.33 932.01 1545.82 936.32 1556.8C940.64 1567.76 945.2 1578.86 949.99 1590.06C954.79 1601.26 959.66 1612.08 964.58 1622.51H991.18C996.09 1612.13 1000.94 1601.34 1005.7 1590.11C1010.47 1578.89 1015 1567.79 1019.28 1556.81C1023.57 1545.84 1027.52 1535.34 1031.13 1525.32C1034.74 1515.31 1037.94 1506.35 1040.72 1498.44H1011.02C1008.73 1505.65 1006.15 1513.4 1003.31 1521.68ZM1084.55 1569.14H1134.08V1546.23H1084.55V1521.88H1140.33V1498.43H1056.66V1622.49H1144.45V1599.04H1084.56V1569.13H1084.55V1569.14ZM1296.69 1557.95C1295.91 1546.91 1295.02 1536.29 1294.01 1526.08C1293 1515.87 1291.89 1506.66 1290.7 1498.42H1265.31C1263.16 1502.36 1260.68 1507.23 1257.86 1513.01C1255.04 1518.8 1252.12 1525.06 1249.07 1531.8C1246.02 1538.55 1243 1545.43 1240.01 1552.48C1237.02 1559.52 1234.21 1566.14 1231.58 1572.35C1228.94 1566.14 1226.14 1559.53 1223.15 1552.48C1220.16 1545.43 1217.14 1538.55 1214.09 1531.8C1211.04 1525.06 1208.11 1518.8 1205.3 1513.01C1202.49 1507.22 1200.01 1502.35 1197.86 1498.42H1171.22C1170.03 1506.66 1168.92 1515.87 1167.91 1526.08C1166.9 1536.29 1166 1546.91 1165.23 1557.95C1164.45 1568.99 1163.74 1580.06 1163.08 1591.15C1162.43 1602.25 1161.86 1612.69 1161.38 1622.48H1188.56C1188.92 1610.43 1189.39 1597.3 1189.99 1583.1C1190.59 1568.9 1191.48 1554.57 1192.68 1540.13C1194.83 1545.14 1197.22 1550.7 1199.85 1556.78C1202.48 1562.86 1205.08 1568.95 1207.65 1575.04C1210.22 1581.13 1212.71 1586.94 1215.1 1592.49C1217.49 1598.04 1219.52 1602.78 1221.2 1606.72H1240.69C1242.36 1602.78 1244.4 1598.04 1246.79 1592.49C1249.18 1586.94 1251.67 1581.13 1254.24 1575.04C1256.81 1568.95 1259.41 1562.87 1262.05 1556.78C1264.68 1550.69 1267.07 1545.15 1269.22 1540.13C1270.41 1554.57 1271.31 1568.9 1271.9 1583.1C1272.49 1597.3 1272.97 1610.43 1273.33 1622.48H1300.51C1300.03 1612.69 1299.47 1602.25 1298.81 1591.15C1298.18 1580.06 1297.46 1569 1296.69 1557.95ZM1353.28 1569.14H1402.81V1546.23H1353.28V1521.88H1409.06V1498.43H1325.39V1622.49H1413.18V1599.04H1353.28V1569.14ZM1512.59 1571.64C1508.3 1565.19 1503.71 1558.49 1498.82 1551.5C1493.93 1544.52 1489.01 1537.78 1484.08 1531.27C1479.13 1524.76 1474.27 1518.65 1469.51 1512.92C1464.74 1507.19 1460.39 1502.35 1456.46 1498.43H1433.75V1622.49H1461.29V1541.22C1471.78 1553.51 1481.67 1566.58 1490.97 1580.42C1500.27 1594.26 1508.91 1608.29 1516.9 1622.49H1540.32V1498.43H1512.6V1571.65H1512.59V1571.64ZM1558.17 1522.24H1595.54V1622.49H1623.43V1522.24H1660.79V1498.43H1558.17V1522.24Z" fill="#111111"/>
<mask id="mask0_300_61" style="mask-type:luminance" maskUnits="userSpaceOnUse" x="76" y="125" width="1000" height="1000">
<path d="M1073.06 579.97V448C1073.05 448 1072.32 448 1042.86 448C971.471 259.22 789.241 125 575.681 125C299.881 125 76.3105 348.86 76.3105 625C76.3105 901.14 299.881 1125 575.681 1125C677.461 1125 772.121 1094.51 851.071 1042.16L666.941 857.77C638.681 868.89 607.901 875 575.701 875C437.801 875 326.021 763.07 326.021 625C326.021 486.93 437.811 375 575.701 375C644.601 375 706.991 402.95 752.161 448.14H752.601C913.781 625.11 925.301 832.05 1073.08 980.01V670.03C1074.4 655.19 1075.08 640.18 1075.08 625C1075.06 609.81 1074.38 594.8 1073.06 579.97Z" fill="white"/>
</mask>
<g mask="url(#mask0_300_61)">
<path d="M574.631 1124.53C850.873 1124.53 1074.81 900.592 1074.81 624.35C1074.81 348.108 850.873 124.17 574.631 124.17C298.389 124.17 74.4512 348.108 74.4512 624.35C74.4512 900.592 298.389 1124.53 574.631 1124.53Z" fill="#64BB46"/>
</g>
<mask id="mask1_300_61" style="mask-type:luminance" maskUnits="userSpaceOnUse" x="76" y="125" width="1000" height="1000">
<path d="M1073.06 579.97V448C1073.05 448 1072.32 448 1042.86 448C971.471 259.22 789.241 125 575.681 125C299.881 125 76.3105 348.86 76.3105 625C76.3105 901.14 299.881 1125 575.681 1125C677.461 1125 772.121 1094.51 851.071 1042.16L666.941 857.77C638.681 868.89 607.901 875 575.701 875C437.801 875 326.021 763.07 326.021 625C326.021 486.93 437.811 375 575.701 375C644.601 375 706.991 402.95 752.161 448.14H752.601C913.781 625.11 925.301 832.05 1073.08 980.01V670.03C1074.4 655.19 1075.08 640.18 1075.08 625C1075.06 609.81 1074.38 594.8 1073.06 579.97Z" fill="white"/>
</mask>
<g mask="url(#mask1_300_61)">
<path d="M949.77 624.35C949.77 417.17 781.82 249.21 574.63 249.21C367.44 249.21 199.5 417.17 199.5 624.35C199.5 831.53 367.45 999.49 574.64 999.49C724.36 999.49 853.59 911.77 913.76 784.92V977.48H1074.82V624.35H949.77Z" fill="#00A850"/>
</g>
<mask id="mask2_300_61" style="mask-type:luminance" maskUnits="userSpaceOnUse" x="924" y="125" width="1000" height="1000">
<path d="M924.949 625C924.949 901.14 1148.53 1125 1424.32 1125C1455.01 1125 1485.05 1122.22 1514.2 1116.92V858.29C1486.31 869.07 1456 875 1424.32 875C1286.42 875 1174.64 763.07 1174.64 625C1174.64 486.93 1286.43 375 1424.32 375C1456.01 375 1486.31 380.92 1514.2 391.71V133.08C1485.04 127.78 1455 125 1424.32 125C1148.53 124.99 924.949 348.85 924.949 625ZM1693.97 204.09V1045.89C1832.15 956.96 1923.68 801.67 1923.68 624.99C1923.68 448.31 1832.15 293.02 1693.97 204.09Z" fill="white"/>
</mask>
<g mask="url(#mask2_300_61)">
<path d="M1424.64 1124.53C1700.88 1124.53 1924.82 900.592 1924.82 624.35C1924.82 348.108 1700.88 124.17 1424.64 124.17C1148.4 124.17 924.459 348.108 924.459 624.35C924.459 900.592 1148.4 1124.53 1424.64 1124.53Z" fill="#0F75BD"/>
</g>
<mask id="mask3_300_61" style="mask-type:luminance" maskUnits="userSpaceOnUse" x="924" y="125" width="1000" height="1000">
<path d="M924.949 625C924.949 901.14 1148.53 1125 1424.32 1125C1455.01 1125 1485.05 1122.22 1514.2 1116.92V858.29C1486.31 869.07 1456 875 1424.32 875C1286.42 875 1174.64 763.07 1174.64 625C1174.64 486.93 1286.43 375 1424.32 375C1456.01 375 1486.31 380.92 1514.2 391.71V133.08C1485.04 127.78 1455 125 1424.32 125C1148.53 124.99 924.949 348.85 924.949 625ZM1693.97 204.09V1045.89C1832.15 956.96 1923.68 801.67 1923.68 624.99C1923.68 448.31 1832.15 293.02 1693.97 204.09Z" fill="white"/>
</mask>
<g mask="url(#mask3_300_61)">
<path d="M1424.64 999.49C1631.82 999.49 1799.78 831.534 1799.78 624.35C1799.78 417.166 1631.82 249.21 1424.64 249.21C1217.46 249.21 1049.5 417.166 1049.5 624.35C1049.5 831.534 1217.46 999.49 1424.64 999.49Z" fill="#2F67B4"/>
</g>
</g>
<defs>
<clipPath id="clip0_300_61">
<rect width="2000" height="1750" fill="white"/>
</clipPath>
</defs>
</svg>
