<svg width="513" height="512" viewBox="0 0 513 512" fill="none" xmlns="http://www.w3.org/2000/svg">
<mask id="mask0_290_55" style="mask-type:luminance" maskUnits="userSpaceOnUse" x="0" y="117" width="278" height="278">
<path d="M276.56 243.52V206.944C276.557 206.944 276.355 206.944 268.19 206.944C248.404 154.624 197.899 117.425 138.711 117.425C62.2727 117.425 0.310059 179.468 0.310059 256C0.310059 332.533 62.2727 394.576 138.711 394.576C166.919 394.576 193.154 386.125 215.035 371.616L164.004 320.513C156.171 323.594 147.641 325.288 138.716 325.288C100.497 325.288 69.5174 294.266 69.5174 256C69.5174 217.734 100.5 186.712 138.716 186.712C157.812 186.712 175.103 194.459 187.622 206.983H187.744C232.415 256.031 235.608 313.384 276.566 354.391V268.48C276.931 264.367 277.12 260.207 277.12 256C277.114 251.79 276.926 247.63 276.56 243.52Z" fill="white"/>
</mask>
<g mask="url(#mask0_290_55)">
<path d="M138.42 394.445C214.98 394.445 277.045 332.381 277.045 255.82C277.045 179.259 214.98 117.195 138.42 117.195C61.8591 117.195 -0.205566 179.259 -0.205566 255.82C-0.205566 332.381 61.8591 394.445 138.42 394.445Z" fill="#64BB46"/>
</g>
<mask id="mask1_290_55" style="mask-type:luminance" maskUnits="userSpaceOnUse" x="0" y="117" width="278" height="278">
<path d="M276.56 243.52V206.944C276.557 206.944 276.355 206.944 268.19 206.944C248.404 154.624 197.899 117.425 138.711 117.425C62.2727 117.425 0.310059 179.468 0.310059 256C0.310059 332.533 62.2727 394.576 138.711 394.576C166.919 394.576 193.154 386.125 215.035 371.616L164.004 320.513C156.171 323.594 147.641 325.288 138.716 325.288C100.497 325.288 69.5174 294.266 69.5174 256C69.5174 217.734 100.5 186.712 138.716 186.712C157.812 186.712 175.103 194.459 187.622 206.983H187.744C232.415 256.031 235.608 313.384 276.566 354.391V268.48C276.931 264.367 277.12 260.207 277.12 256C277.114 251.79 276.926 247.63 276.56 243.52Z" fill="white"/>
</mask>
<g mask="url(#mask1_290_55)">
<path d="M242.39 255.82C242.39 198.4 195.843 151.85 138.42 151.85C80.9968 151.85 34.4521 198.4 34.4521 255.82C34.4521 313.24 80.9996 359.79 138.422 359.79C179.917 359.79 215.734 335.479 232.41 300.322V353.69H277.048V255.82H242.39Z" fill="#00A850"/>
</g>
<mask id="mask2_290_55" style="mask-type:luminance" maskUnits="userSpaceOnUse" x="235" y="117" width="278" height="278">
<path d="M235.511 256C235.511 332.533 297.477 394.576 373.912 394.576C382.418 394.576 390.743 393.805 398.822 392.336V320.657C391.093 323.644 382.692 325.288 373.912 325.288C335.693 325.288 304.713 294.266 304.713 256C304.713 217.734 335.696 186.712 373.912 186.712C382.695 186.712 391.093 188.353 398.822 191.344V119.664C390.741 118.195 382.415 117.425 373.912 117.425C297.477 117.422 235.511 179.465 235.511 256ZM448.646 139.345V372.65C486.942 348.003 512.31 304.964 512.31 255.997C512.31 207.03 486.942 163.992 448.646 139.345Z" fill="white"/>
</mask>
<g mask="url(#mask2_290_55)">
<path d="M374.001 394.445C450.561 394.445 512.626 332.381 512.626 255.82C512.626 179.259 450.561 117.195 374.001 117.195C297.44 117.195 235.375 179.259 235.375 255.82C235.375 332.381 297.44 394.445 374.001 394.445Z" fill="#0F75BD"/>
</g>
<mask id="mask3_290_55" style="mask-type:luminance" maskUnits="userSpaceOnUse" x="235" y="117" width="278" height="278">
<path d="M235.511 256C235.511 332.533 297.477 394.576 373.912 394.576C382.418 394.576 390.743 393.805 398.822 392.336V320.657C391.093 323.644 382.692 325.288 373.912 325.288C335.693 325.288 304.713 294.266 304.713 256C304.713 217.734 335.696 186.712 373.912 186.712C382.695 186.712 391.093 188.353 398.822 191.344V119.664C390.741 118.195 382.415 117.425 373.912 117.425C297.477 117.422 235.511 179.465 235.511 256ZM448.646 139.345V372.65C486.942 348.003 512.31 304.964 512.31 255.997C512.31 207.03 486.942 163.992 448.646 139.345Z" fill="white"/>
</mask>
<g mask="url(#mask3_290_55)">
<path d="M374.001 359.79C431.422 359.79 477.971 313.241 477.971 255.82C477.971 198.399 431.422 151.85 374.001 151.85C316.579 151.85 270.03 198.399 270.03 255.82C270.03 313.241 316.579 359.79 374.001 359.79Z" fill="#2F67B4"/>
</g>
</svg>
