<svg width="512" height="512" viewBox="0 0 512 512" fill="none" xmlns="http://www.w3.org/2000/svg">
<mask id="mask0_309_40" style="mask-type:luminance" maskUnits="userSpaceOnUse" x="0" y="117" width="277" height="278">
<path d="M276.25 243.341V206.694C276.247 206.694 276.045 206.694 267.88 206.694C248.094 154.272 197.589 117 138.401 117C61.9627 117 0 179.164 0 255.846C0 332.528 61.9627 394.692 138.401 394.692C166.609 394.692 192.844 386.225 214.725 371.687L163.694 320.485C155.861 323.572 147.331 325.269 138.406 325.269C100.187 325.269 69.2074 294.186 69.2074 255.846C69.2074 217.505 100.19 186.422 138.406 186.422C157.502 186.422 174.793 194.184 187.312 206.733H187.434C232.105 255.877 235.298 313.342 276.256 354.429V268.35C276.621 264.229 276.81 260.061 276.81 255.846C276.804 251.627 276.616 247.459 276.25 243.341Z" fill="white"/>
</mask>
<g mask="url(#mask0_309_40)">
<path d="M138.11 394.561C214.67 394.561 276.735 332.376 276.735 255.665C276.735 178.955 214.67 116.77 138.11 116.77C61.5491 116.77 -0.515625 178.955 -0.515625 255.665C-0.515625 332.376 61.5491 394.561 138.11 394.561Z" fill="#64BB46"/>
</g>
<mask id="mask1_309_40" style="mask-type:luminance" maskUnits="userSpaceOnUse" x="0" y="117" width="277" height="278">
<path d="M276.25 243.341V206.694C276.247 206.694 276.045 206.694 267.88 206.694C248.094 154.272 197.589 117 138.401 117C61.9627 117 0 179.164 0 255.846C0 332.528 61.9627 394.692 138.401 394.692C166.609 394.692 192.844 386.225 214.725 371.687L163.694 320.485C155.861 323.572 147.331 325.269 138.406 325.269C100.187 325.269 69.2074 294.186 69.2074 255.846C69.2074 217.505 100.19 186.422 138.406 186.422C157.502 186.422 174.793 194.184 187.312 206.733H187.434C232.105 255.877 235.298 313.342 276.256 354.429V268.35C276.621 264.229 276.81 260.061 276.81 255.846C276.804 251.627 276.616 247.459 276.25 243.341Z" fill="white"/>
</mask>
<g mask="url(#mask1_309_40)">
<path d="M242.08 255.665C242.08 198.133 195.533 151.492 138.11 151.492C80.6868 151.492 34.1421 198.133 34.1421 255.665C34.1421 313.198 80.6896 359.838 138.112 359.838C179.607 359.838 215.424 335.48 232.1 300.254V353.727H276.738V255.665H242.08Z" fill="#00A850"/>
</g>
<mask id="mask2_309_40" style="mask-type:luminance" maskUnits="userSpaceOnUse" x="235" y="117" width="277" height="278">
<path d="M235.201 255.846C235.201 332.528 297.167 394.692 373.602 394.692C382.108 394.692 390.433 393.92 398.512 392.448V320.629C390.783 323.622 382.382 325.269 373.602 325.269C335.383 325.269 304.403 294.186 304.403 255.846C304.403 217.505 335.386 186.422 373.602 186.422C382.385 186.422 390.783 188.067 398.512 191.063V119.243C390.431 117.772 382.105 117 373.602 117C297.167 116.997 235.201 179.161 235.201 255.846ZM448.336 138.963V372.724C486.632 348.028 512 304.905 512 255.843C512 206.78 486.632 163.658 448.336 138.963Z" fill="white"/>
</mask>
<g mask="url(#mask2_309_40)">
<path d="M373.691 394.561C450.251 394.561 512.316 332.376 512.316 255.665C512.316 178.955 450.251 116.77 373.691 116.77C297.13 116.77 235.065 178.955 235.065 255.665C235.065 332.376 297.13 394.561 373.691 394.561Z" fill="#0F75BD"/>
</g>
<mask id="mask3_309_40" style="mask-type:luminance" maskUnits="userSpaceOnUse" x="235" y="117" width="277" height="278">
<path d="M235.201 255.846C235.201 332.528 297.167 394.692 373.602 394.692C382.108 394.692 390.433 393.92 398.512 392.448V320.629C390.783 323.622 382.382 325.269 373.602 325.269C335.383 325.269 304.403 294.186 304.403 255.846C304.403 217.505 335.386 186.422 373.602 186.422C382.385 186.422 390.783 188.067 398.512 191.063V119.243C390.431 117.772 382.105 117 373.602 117C297.167 116.997 235.201 179.161 235.201 255.846ZM448.336 138.963V372.724C486.632 348.028 512 304.905 512 255.843C512 206.78 486.632 163.658 448.336 138.963Z" fill="white"/>
</mask>
<g mask="url(#mask3_309_40)">
<path d="M373.691 359.838C431.112 359.838 477.661 313.199 477.661 255.665C477.661 198.132 431.112 151.492 373.691 151.492C316.269 151.492 269.72 198.132 269.72 255.665C269.72 313.199 316.269 359.838 373.691 359.838Z" fill="#2F67B4"/>
</g>
</svg>
