<svg width="2000" height="1200" viewBox="0 0 2000 1200" fill="none" xmlns="http://www.w3.org/2000/svg">
<g clip-path="url(#clip0_300_62)">
<mask id="mask0_300_62" style="mask-type:luminance" maskUnits="userSpaceOnUse" x="76" y="100" width="1000" height="1000">
<path d="M1073.06 554.97V423C1073.05 423 1072.32 423 1042.86 423C971.47 234.22 789.24 100 575.68 100C299.88 100 76.3096 323.86 76.3096 600C76.3096 876.14 299.88 1100 575.68 1100C677.46 1100 772.12 1069.51 851.07 1017.16L666.94 832.77C638.68 843.89 607.9 850 575.7 850C437.8 850 326.02 738.07 326.02 600C326.02 461.93 437.81 350 575.7 350C644.6 350 706.99 377.95 752.16 423.14H752.6C913.78 600.11 925.3 807.05 1073.08 955.01V645.03C1074.4 630.19 1075.08 615.18 1075.08 600C1075.06 584.81 1074.38 569.8 1073.06 554.97Z" fill="white"/>
</mask>
<g mask="url(#mask0_300_62)">
<path d="M574.629 1099.53C850.871 1099.53 1074.81 875.592 1074.81 599.35C1074.81 323.108 850.871 99.1699 574.629 99.1699C298.387 99.1699 74.4492 323.108 74.4492 599.35C74.4492 875.592 298.387 1099.53 574.629 1099.53Z" fill="#64BB46"/>
</g>
<mask id="mask1_300_62" style="mask-type:luminance" maskUnits="userSpaceOnUse" x="76" y="100" width="1000" height="1000">
<path d="M1073.06 554.97V423C1073.05 423 1072.32 423 1042.86 423C971.47 234.22 789.24 100 575.68 100C299.88 100 76.3096 323.86 76.3096 600C76.3096 876.14 299.88 1100 575.68 1100C677.46 1100 772.12 1069.51 851.07 1017.16L666.94 832.77C638.68 843.89 607.9 850 575.7 850C437.8 850 326.02 738.07 326.02 600C326.02 461.93 437.81 350 575.7 350C644.6 350 706.99 377.95 752.16 423.14H752.6C913.78 600.11 925.3 807.05 1073.08 955.01V645.03C1074.4 630.19 1075.08 615.18 1075.08 600C1075.06 584.81 1074.38 569.8 1073.06 554.97Z" fill="white"/>
</mask>
<g mask="url(#mask1_300_62)">
<path d="M949.77 599.35C949.77 392.17 781.82 224.21 574.63 224.21C367.44 224.21 199.5 392.17 199.5 599.35C199.5 806.53 367.45 974.49 574.64 974.49C724.36 974.49 853.59 886.77 913.76 759.92V952.48H1074.82V599.35H949.77Z" fill="#00A850"/>
</g>
<mask id="mask2_300_62" style="mask-type:luminance" maskUnits="userSpaceOnUse" x="924" y="100" width="1000" height="1000">
<path d="M924.95 600C924.95 876.14 1148.53 1100 1424.32 1100C1455.01 1100 1485.05 1097.22 1514.2 1091.92V833.29C1486.31 844.07 1456 850 1424.32 850C1286.42 850 1174.64 738.07 1174.64 600C1174.64 461.93 1286.43 350 1424.32 350C1456.01 350 1486.31 355.92 1514.2 366.71V108.08C1485.04 102.78 1455 100 1424.32 100C1148.53 99.99 924.95 323.85 924.95 600ZM1693.97 179.09V1020.89C1832.15 931.96 1923.68 776.67 1923.68 599.99C1923.68 423.31 1832.15 268.02 1693.97 179.09Z" fill="white"/>
</mask>
<g mask="url(#mask2_300_62)">
<path d="M1424.64 1099.53C1700.88 1099.53 1924.82 875.592 1924.82 599.35C1924.82 323.108 1700.88 99.1699 1424.64 99.1699C1148.4 99.1699 924.46 323.108 924.46 599.35C924.46 875.592 1148.4 1099.53 1424.64 1099.53Z" fill="#0F75BD"/>
</g>
<mask id="mask3_300_62" style="mask-type:luminance" maskUnits="userSpaceOnUse" x="924" y="100" width="1000" height="1000">
<path d="M924.95 600C924.95 876.14 1148.53 1100 1424.32 1100C1455.01 1100 1485.05 1097.22 1514.2 1091.92V833.29C1486.31 844.07 1456 850 1424.32 850C1286.42 850 1174.64 738.07 1174.64 600C1174.64 461.93 1286.43 350 1424.32 350C1456.01 350 1486.31 355.92 1514.2 366.71V108.08C1485.04 102.78 1455 100 1424.32 100C1148.53 99.99 924.95 323.85 924.95 600ZM1693.97 179.09V1020.89C1832.15 931.96 1923.68 776.67 1923.68 599.99C1923.68 423.31 1832.15 268.02 1693.97 179.09Z" fill="white"/>
</mask>
<g mask="url(#mask3_300_62)">
<path d="M1424.64 974.49C1631.82 974.49 1799.78 806.534 1799.78 599.35C1799.78 392.166 1631.82 224.21 1424.64 224.21C1217.46 224.21 1049.5 392.166 1049.5 599.35C1049.5 806.534 1217.46 974.49 1424.64 974.49Z" fill="#2F67B4"/>
</g>
</g>
<defs>
<clipPath id="clip0_300_62">
<rect width="2000" height="1200" fill="white"/>
</clipPath>
</defs>
</svg>
